# xmcd
#
# Track frame offsets:
#	150
#	26358
#	46219
#	68037
#	89159
#	107513
#	125672
#	151437
#
# Disc length: 2325 seconds
#
# Revision: 1
# Processed by: cddbd v1.5.2PL0 Copyright (c) Steve Scherf et al.
# Submitted via: audiograbber 1.83.01
#
DISCID=64091308
DTITLE=Roberto Gatto - Notes
DYEAR=1900
DGENRE=Italiana
TTITLE0=Streggae
TTITLE1=Town Street
TTITLE2=Green Ice, Blue Eyes
TTITLE3=Can You Make It
TTITLE4=A Long Step
TTITLE5=First Blues
TTITLE6=Pedals
TTITLE7=La Coda Del Gatto
EXTD=
EXTT0=
EXTT1=
EXTT2=
EXTT3=
EXTT4=
EXTT5=
EXTT6=
EXTT7=
PLAYORDER=
